<?xml version="1.0" encoding="UTF-8" standalone="no"?><!DOCTYPE svg PUBLIC "-//W3C//DTD SVG 1.1//EN" "http://www.w3.org/Graphics/SVG/1.1/DTD/svg11.dtd"><svg width="100%" height="100%" viewBox="0 0 8000 8000" version="1.1" xmlns="http://www.w3.org/2000/svg" xmlns:xlink="http://www.w3.org/1999/xlink" xml:space="preserve" xmlns:serif="http://www.serif.com/" style="fill-rule:evenodd;clip-rule:evenodd;stroke-linecap:round;stroke-linejoin:round;stroke-miterlimit:1.5;"><g transform="matrix(4.16667,0,0,4.16667,0,0)"><path id="Background" d="M1920,768c0,-423.871 -344.129,-768 -768,-768l-384,0c-423.871,0 -768,344.129 -768,768l0,384c0,423.871 344.129,768 768,768l384,0c423.871,0 768,-344.129 768,-768l0,-384Z" style="fill:#8165a2;"/><g id="Ledger" transform="matrix(0.886856,0,0,0.886856,94.7825,108.618)"><g id="Back" transform="matrix(0.533246,0,0,0.835724,448.083,157.705)"><path d="M1920,85.756c0,-47.33 -60.223,-85.756 -134.4,-85.756l-1651.2,0c-74.177,0 -134.4,38.426 -134.4,85.756l0,1748.49c0,47.33 60.223,85.756 134.4,85.756l1651.2,-0c74.177,-0 134.4,-38.426 134.4,-85.756l0,-1748.49Z" style="fill:#a18cb9;stroke:#000;stroke-width:64.34px;"/></g><g id="Spine"><g transform="matrix(1.07673,0,0,3.78482,-34.3823,-1370.2)"><rect x="372.986" y="480.626" width="150.196" height="35.046" style="stroke:#000;stroke-width:4.05px;"/></g><g transform="matrix(1.07673,0,0,3.78482,-34.3823,-480.607)"><rect x="372.986" y="480.626" width="150.196" height="35.046" style="stroke:#000;stroke-width:4.05px;"/></g><g transform="matrix(1.07673,0,0,3.78482,-34.3823,-925.402)"><rect x="372.986" y="480.626" width="150.196" height="35.046" style="stroke:#000;stroke-width:4.05px;"/></g></g><g id="Entries" transform="matrix(1,0,0,1.15285,153.835,-106.249)"><g transform="matrix(3.98667,0,0,2.85714,-878.677,-463.282)"><rect x="372.986" y="480.626" width="150.196" height="35.046" style="fill:#f00;stroke:#f00;stroke-width:3.08px;"/></g><g transform="matrix(2.44553,0,0,2.85714,-303.857,-623.49)"><rect x="372.986" y="480.626" width="150.196" height="35.046" style="stroke:#000;stroke-width:3.89px;"/></g><g transform="matrix(1.12,0,0,2.85714,190.548,-142.865)"><rect x="372.986" y="480.626" width="150.196" height="35.046" style="stroke:#000;stroke-width:4.58px;"/></g><g transform="matrix(1.99333,0,0,2.85714,-135.193,-303.073)"><rect x="372.986" y="480.626" width="150.196" height="35.046" style="fill:#00ff1f;stroke:#00ff1f;stroke-width:4.14px;"/></g><g transform="matrix(3.21333,0,0,2.85714,-590.235,17.3439)"><rect x="372.986" y="480.626" width="150.196" height="35.046" style="stroke:#000;stroke-width:3.47px;"/></g></g><g id="Padlock" transform="matrix(0.900081,0,0,0.900081,773.982,241.093)"><path d="M384,223.1l-16,0.9l0,-80c0,-79.41 -64.59,-144 -144,-144c-79.41,0 -144,64.59 -144,144l0,80l-16,-0.9c-35.35,0 -64,28.65 -64,64l0,160c0,35.34 28.65,64 64,64l320,0c35.35,0 64,-28.66 64,-64l0,-160c0,-34.4 -28.7,-64 -64,-64Zm-240,-79.1c0,-44.12 35.9,-80 80,-80c44.1,0 80,35.88 80,80l0,80l-160,0l0,-80Z" style="fill:#ffd601;fill-rule:nonzero;"/></g><g id="Icons" transform="matrix(1.21622,0,0,1.21622,-136.773,-163.908)"><g><g transform="matrix(0.525654,0,0,1.21297,287.539,419.615)"><rect x="628.82" y="794.666" width="52.869" height="57.675"/></g><g transform="matrix(0.21186,0,0,0.21186,578.334,1358.74)"><path d="M506.3,417l-213.3,-364c-16.33,-28 -57.54,-28 -73.98,0l-213.2,364c-16.41,27.9 4.029,63 36.92,63l426.6,0c32.76,0 53.26,-35 36.96,-63Zm-274.3,-249c0,-13.25 10.75,-24 24,-24c13.25,0 24,10.8 24,24l0,128c0,13.25 -10.75,24 -23.1,24c-12.35,0 -24.9,-10.7 -24.9,-24l0,-128Zm24,248c-17.36,0 -31.44,-14.08 -31.44,-31.44c0,-17.36 14.07,-31.44 31.44,-31.44c17.37,0 31.44,14.08 31.44,31.44c-0.04,17.34 -14.04,31.44 -31.44,31.44Z" style="fill:#ffd601;fill-rule:nonzero;"/></g></g><g><g transform="matrix(0.525654,0,0,1.21297,287.539,269.024)"><rect x="628.82" y="794.666" width="52.869" height="57.675"/></g><g transform="matrix(0.21186,0,0,0.21186,578.334,1206.88)"><path d="M506.3,417l-213.3,-364c-16.33,-28 -57.54,-28 -73.98,0l-213.2,364c-16.41,27.9 4.029,63 36.92,63l426.6,0c32.76,0 53.26,-35 36.96,-63Zm-274.3,-249c0,-13.25 10.75,-24 24,-24c13.25,0 24,10.8 24,24l0,128c0,13.25 -10.75,24 -23.1,24c-12.35,0 -24.9,-10.7 -24.9,-24l0,-128Zm24,248c-17.36,0 -31.44,-14.08 -31.44,-31.44c0,-17.36 14.07,-31.44 31.44,-31.44c17.37,0 31.44,14.08 31.44,31.44c-0.04,17.34 -14.04,31.44 -31.44,31.44Z" style="fill:#ffd601;fill-rule:nonzero;"/></g></g><g><g transform="matrix(0.525654,0,0,1.21297,287.539,-190.333)"><rect x="628.82" y="794.666" width="52.869" height="57.675"/></g><g transform="matrix(0.21186,0,0,0.21186,578.334,751.294)"><path d="M506.3,417l-213.3,-364c-16.33,-28 -57.54,-28 -73.98,0l-213.2,364c-16.41,27.9 4.029,63 36.92,63l426.6,0c32.76,0 53.26,-35 36.96,-63Zm-274.3,-249c0,-13.25 10.75,-24 24,-24c13.25,0 24,10.8 24,24l0,128c0,13.25 -10.75,24 -23.1,24c-12.35,0 -24.9,-10.7 -24.9,-24l0,-128Zm24,248c-17.36,0 -31.44,-14.08 -31.44,-31.44c0,-17.36 14.07,-31.44 31.44,-31.44c17.37,0 31.44,14.08 31.44,31.44c-0.04,17.34 -14.04,31.44 -31.44,31.44Z" style="fill:#ffd601;fill-rule:nonzero;"/></g></g></g></g></g></svg>